<svg width="122" height="25" viewBox="0 0 122 25" fill="none" xmlns="http://www.w3.org/2000/svg">
<path d="M20.964 1.28C21.5613 1.28 22.0413 1.472 22.404 1.856C22.7667 2.21867 22.948 2.70933 22.948 3.328V22.272C22.948 22.8693 22.7773 23.3387 22.436 23.68C22.0947 24.0213 21.6467 24.192 21.092 24.192C20.5373 24.192 20.1 24.0213 19.78 23.68C19.46 23.3387 19.3 22.8693 19.3 22.272V9.088L13.86 19.392C13.604 19.8613 13.3267 20.2133 13.028 20.448C12.7293 20.6613 12.3773 20.768 11.972 20.768C11.5667 20.768 11.2147 20.6613 10.916 20.448C10.6173 20.2347 10.34 19.8827 10.084 19.392L4.612 9.248V22.272C4.612 22.848 4.44133 23.3173 4.1 23.68C3.78 24.0213 3.34267 24.192 2.788 24.192C2.23333 24.192 1.796 24.0213 1.476 23.68C1.156 23.3387 0.996 22.8693 0.996 22.272V3.328C0.996 2.70933 1.16667 2.21867 1.508 1.856C1.87067 1.472 2.35067 1.28 2.948 1.28C3.78 1.28 4.43067 1.73867 4.9 2.656L12.004 16.192L19.076 2.656C19.5453 1.73867 20.1747 1.28 20.964 1.28ZM29.4703 24.192C28.8943 24.192 28.4143 24.032 28.0303 23.712C27.6676 23.3707 27.4863 22.8907 27.4863 22.272V9.92C27.4863 9.30133 27.6676 8.832 28.0303 8.512C28.4143 8.192 28.8943 8.032 29.4703 8.032C30.0463 8.032 30.5263 8.192 30.9103 8.512C31.2943 8.832 31.4863 9.30133 31.4863 9.92V22.272C31.4863 22.8907 31.2943 23.3707 30.9103 23.712C30.5263 24.032 30.0463 24.192 29.4703 24.192ZM29.4703 5.184C28.7449 5.184 28.1689 4.992 27.7423 4.608C27.3156 4.20267 27.1023 3.68 27.1023 3.04C27.1023 2.4 27.3156 1.888 27.7423 1.504C28.1689 1.12 28.7449 0.927999 29.4703 0.927999C30.1743 0.927999 30.7396 1.12 31.1663 1.504C31.6143 1.888 31.8383 2.4 31.8383 3.04C31.8383 3.68 31.6249 4.20267 31.1983 4.608C30.7716 4.992 30.1956 5.184 29.4703 5.184ZM42.5553 24.256C40.9979 24.256 39.6219 23.9253 38.4273 23.264C37.2539 22.6027 36.3473 21.664 35.7073 20.448C35.0673 19.232 34.7473 17.8133 34.7473 16.192C34.7473 14.5707 35.0779 13.1413 35.7393 11.904C36.4219 10.6453 37.3713 9.67467 38.5873 8.992C39.8033 8.30933 41.2006 7.968 42.7793 7.968C43.6113 7.968 44.4433 8.08533 45.2753 8.32C46.1286 8.55467 46.8753 8.87467 47.5153 9.28C48.1979 9.728 48.5393 10.2933 48.5393 10.976C48.5393 11.4453 48.4219 11.8293 48.1873 12.128C47.9739 12.4053 47.6859 12.544 47.3233 12.544C47.0886 12.544 46.8433 12.4907 46.5873 12.384C46.3313 12.2773 46.0753 12.1493 45.8193 12C45.3499 11.7227 44.9019 11.5093 44.4753 11.36C44.0486 11.1893 43.5579 11.104 43.0033 11.104C41.6806 11.104 40.6566 11.5413 39.9313 12.416C39.2273 13.2693 38.8753 14.5067 38.8753 16.128C38.8753 17.728 39.2273 18.9653 39.9313 19.84C40.6566 20.6933 41.6806 21.12 43.0033 21.12C43.5366 21.12 44.0059 21.0453 44.4113 20.896C44.8379 20.7253 45.3073 20.5013 45.8193 20.224C46.1393 20.032 46.4166 19.8933 46.6513 19.808C46.8859 19.7013 47.1206 19.648 47.3553 19.648C47.6966 19.648 47.9846 19.7973 48.2193 20.096C48.4539 20.3947 48.5713 20.768 48.5713 21.216C48.5713 21.5787 48.4859 21.8987 48.3153 22.176C48.1659 22.432 47.9099 22.6667 47.5473 22.88C46.8859 23.3067 46.1179 23.648 45.2433 23.904C44.3686 24.1387 43.4726 24.256 42.5553 24.256ZM59.9723 8.032C60.5269 7.98933 60.9643 8.10667 61.2843 8.384C61.6043 8.66133 61.7643 9.07733 61.7643 9.632C61.7643 10.208 61.6256 10.6347 61.3483 10.912C61.0709 11.1893 60.5696 11.3707 59.8443 11.456L58.8843 11.552C57.6256 11.68 56.6976 12.1067 56.1003 12.832C55.5243 13.5573 55.2363 14.464 55.2363 15.552V22.272C55.2363 22.8907 55.0443 23.3707 54.6603 23.712C54.2763 24.032 53.7963 24.192 53.2203 24.192C52.6443 24.192 52.1643 24.032 51.7803 23.712C51.4176 23.3707 51.2363 22.8907 51.2363 22.272V9.888C51.2363 9.29067 51.4176 8.832 51.7803 8.512C52.1643 8.192 52.6336 8.032 53.1883 8.032C53.7429 8.032 54.1909 8.192 54.5323 8.512C54.8736 8.81067 55.0443 9.248 55.0443 9.824V11.104C55.4496 10.1653 56.0469 9.44 56.8363 8.928C57.6469 8.416 58.5429 8.128 59.5243 8.064L59.9723 8.032ZM70.3098 24.256C68.7098 24.256 67.3018 23.9253 66.0858 23.264C64.8911 22.6027 63.9631 21.6533 63.3018 20.416C62.6404 19.1787 62.3098 17.7387 62.3098 16.096C62.3098 14.4533 62.6404 13.024 63.3018 11.808C63.9631 10.5707 64.8911 9.62133 66.0858 8.96C67.3018 8.29867 68.7098 7.968 70.3098 7.968C71.9098 7.968 73.3071 8.29867 74.5018 8.96C75.7178 9.62133 76.6458 10.5707 77.2858 11.808C77.9471 13.024 78.2778 14.4533 78.2778 16.096C78.2778 17.7387 77.9471 19.1787 77.2858 20.416C76.6458 21.6533 75.7178 22.6027 74.5018 23.264C73.3071 23.9253 71.9098 24.256 70.3098 24.256ZM70.2778 21.152C71.5791 21.152 72.5711 20.7253 73.2538 19.872C73.9364 19.0187 74.2778 17.76 74.2778 16.096C74.2778 14.4533 73.9364 13.2053 73.2538 12.352C72.5711 11.4773 71.5898 11.04 70.3098 11.04C69.0298 11.04 68.0378 11.4773 67.3338 12.352C66.6511 13.2053 66.3098 14.4533 66.3098 16.096C66.3098 17.76 66.6511 19.0187 67.3338 19.872C68.0164 20.7253 68.9978 21.152 70.2778 21.152ZM99.436 20.896C99.8627 21.3013 100.076 21.76 100.076 22.272C100.076 22.7627 99.884 23.2 99.5 23.584C99.1373 23.9467 98.7 24.128 98.188 24.128C97.6547 24.128 97.164 23.904 96.716 23.456L86.06 13.472V22.112C86.06 22.7307 85.868 23.232 85.484 23.616C85.1213 24 84.62 24.192 83.98 24.192C83.3613 24.192 82.86 24 82.476 23.616C82.1133 23.232 81.932 22.7307 81.932 22.112V3.328C81.932 2.70933 82.1133 2.21867 82.476 1.856C82.86 1.472 83.3613 1.28 83.98 1.28C84.62 1.28 85.1213 1.472 85.484 1.856C85.868 2.21867 86.06 2.70933 86.06 3.328V11.552L96.364 1.888C96.748 1.504 97.1853 1.312 97.676 1.312C98.1667 1.312 98.5933 1.504 98.956 1.888C99.34 2.25067 99.532 2.67733 99.532 3.168C99.532 3.65867 99.3187 4.10667 98.892 4.512L90.284 12.384L99.436 20.896ZM104.689 24.192C104.113 24.192 103.633 24.032 103.249 23.712C102.886 23.3707 102.705 22.8907 102.705 22.272V9.92C102.705 9.30133 102.886 8.832 103.249 8.512C103.633 8.192 104.113 8.032 104.689 8.032C105.265 8.032 105.745 8.192 106.129 8.512C106.513 8.832 106.705 9.30133 106.705 9.92V22.272C106.705 22.8907 106.513 23.3707 106.129 23.712C105.745 24.032 105.265 24.192 104.689 24.192ZM104.689 5.184C103.964 5.184 103.388 4.992 102.961 4.608C102.534 4.20267 102.321 3.68 102.321 3.04C102.321 2.4 102.534 1.888 102.961 1.504C103.388 1.12 103.964 0.927999 104.689 0.927999C105.393 0.927999 105.958 1.12 106.385 1.504C106.833 1.888 107.057 2.4 107.057 3.04C107.057 3.68 106.844 4.20267 106.417 4.608C105.99 4.992 105.414 5.184 104.689 5.184ZM119.646 21.216C120.712 21.28 121.246 21.76 121.246 22.656C121.246 23.168 121.032 23.5627 120.606 23.84C120.2 24.096 119.614 24.2027 118.845 24.16L117.982 24.096C114.398 23.84 112.606 21.92 112.606 18.336V11.36H111.006C110.43 11.36 109.982 11.232 109.662 10.976C109.363 10.72 109.213 10.3467 109.213 9.856C109.213 9.36533 109.363 8.992 109.662 8.736C109.982 8.48 110.43 8.352 111.006 8.352H112.606V5.408C112.606 4.832 112.787 4.37333 113.15 4.032C113.512 3.69067 114.003 3.52 114.622 3.52C115.219 3.52 115.699 3.69067 116.062 4.032C116.424 4.37333 116.606 4.832 116.606 5.408V8.352H119.326C119.902 8.352 120.339 8.48 120.638 8.736C120.958 8.992 121.118 9.36533 121.118 9.856C121.118 10.3467 120.958 10.72 120.638 10.976C120.339 11.232 119.902 11.36 119.326 11.36H116.606V18.624C116.606 20.2027 117.331 21.0453 118.782 21.152L119.646 21.216Z" fill="url(#paint0_linear_82_62)"/>
<defs>
<linearGradient id="paint0_linear_82_62" x1="-1.5" y1="-9" x2="96.4065" y2="73.9633" gradientUnits="userSpaceOnUse">
<stop stop-color="#0C97FA"/>
<stop offset="1" stop-color="#16E1F5"/>
</linearGradient>
</defs>
</svg>
